<?xml version="1.0" encoding="UTF-8" standalone="no"?>
<svg
   xmlns:dc="http://purl.org/dc/elements/1.1/"
   xmlns:cc="http://creativecommons.org/ns#"
   xmlns:rdf="http://www.w3.org/1999/02/22-rdf-syntax-ns#"
   xmlns:svg="http://www.w3.org/2000/svg"
   xmlns="http://www.w3.org/2000/svg"
   xmlns:sodipodi="http://sodipodi.sourceforge.net/DTD/sodipodi-0.dtd"
   xmlns:inkscape="http://www.inkscape.org/namespaces/inkscape"
   width="2592"
   height="1944"
   id="svg3484"
   version="1.1"
   inkscape:version="0.48.4 r9939"
   sodipodi:docname="Fwd__Bubble_hand_drawn.svg">
  <title
     id="title4189">Bubble Hand Drawn REMIX</title>
  <metadata
     id="metadata3854">
    <rdf:RDF>
      <cc:Work
         rdf:about="">
        <dc:format>image/svg+xml</dc:format>
        <dc:type
           rdf:resource="http://purl.org/dc/dcmitype/StillImage" />
        <dc:title>Bubble Hand Drawn REMIX</dc:title>
        <cc:license
           rdf:resource="http://creativecommons.org/licenses/publicdomain/" />
      </cc:Work>
      <cc:License
         rdf:about="http://creativecommons.org/licenses/publicdomain/">
        <cc:permits
           rdf:resource="http://creativecommons.org/ns#Reproduction" />
        <cc:permits
           rdf:resource="http://creativecommons.org/ns#Distribution" />
        <cc:permits
           rdf:resource="http://creativecommons.org/ns#DerivativeWorks" />
      </cc:License>
    </rdf:RDF>
  </metadata>
  <defs
     id="defs3852" />
  <sodipodi:namedview
     pagecolor="#ffffff"
     bordercolor="#666666"
     borderopacity="1"
     objecttolerance="10"
     gridtolerance="10"
     guidetolerance="10"
     inkscape:pageopacity="0"
     inkscape:pageshadow="2"
     inkscape:window-width="1920"
     inkscape:window-height="1052"
     id="namedview3850"
     showgrid="false"
     inkscape:zoom="0.31154165"
     inkscape:cx="766.67644"
     inkscape:cy="1169.399"
     inkscape:window-x="1280"
     inkscape:window-y="0"
     inkscape:window-maximized="1"
     inkscape:current-layer="svg3484" />
  <path
     style="fill:#3465a4;stroke:none"
     d="m 403.19687,984.61203 c 15.82273,116.04337 9.79328,241.09407 75.02442,343.39387 28.44958,72.4992 57.57209,147.9108 111.12153,205.3844 43.46959,63.5837 92.33153,119.7756 160.60642,159.4118 55.64613,47.1675 138.44581,91.6437 206.51225,92.0555 -219.35627,-65.4379 -394.58943,-245.6819 -472.27659,-458.5764 -52.02415,-116.5879 -72.84017,-244.3827 -72.68382,-371.32795 5.64325,66.70575 4.22026,136.59445 25.90263,198.83075 19.33653,120.7376 80.18984,230.7357 144.19849,333.324 93.39871,129.923 229.39573,229.4164 383.13173,276.0449 105.65427,34.2097 218.54447,34.9987 327.69727,34.6645 87.3179,-13.4195 -59.8021,-0.02 24.8061,-9.8997 61.9017,-5.9534 129.4905,-29.8073 198.5029,-52.453 83.6912,-28.187 159.6307,-74.6502 225.2942,-133.2027 88.0063,-63.4641 164.1326,-144.2504 220.6799,-237.0276 55.6652,-81.4504 95.5259,-172.9339 118.5919,-269.1358 2.4371,-54.9595 -0.8226,48.3074 6.3071,-12.5886 27.0398,-126.36665 9.7846,-259.09186 -22.0896,-383.0671 -0.175,-31.01239 -64.4393,-154.76533 -27.6933,-65.95349 23.6817,40.81415 37.9062,132.64595 6.2151,41.86373 -21.4677,-75.8826 -64.8249,-141.12546 -92.3554,-214.93314 -21.4126,-36.19385 -35.9384,-59.52641 2.5107,-13.56214 14.6054,29.41036 67.3901,155.54711 62.6889,125.70468 -27.8224,-79.40572 -69.608,-168.51666 -133.3343,-204.26593 -55.4253,-64.35766 -125.048,-120.11377 -201.7017,-155.45855 -65.4088,-20.20137 -120.0643,-64.62192 -182.6787,-67.66537 -82.1911,-11.43373 -165.6406,-12.37328 -247.9437,-7.58012 -66.0923,-4.28694 -137.0877,34.42194 -187.0635,33.62842 -83.85232,31.08212 -176.90601,52.6517 -253.7756,105.88594 -53.51556,41.98543 -138.44164,62.67024 -166.51245,134.48261 -88.05958,77.20495 -134.34473,189.16296 -183.54783,292.68558 -37.88379,88.81088 -43.45458,186.6965 -56.13505,279.33691 z m 1512.36033,-598.94918 -0.7226,-1.17349 0.7226,1.17349 z m -0.7909,-1.1863 c -6.4457,-24.05163 -17.1462,-2.44869 0,0 z m -947.38026,1406.89395 0.76547,0.6288 -0.76547,-0.6288 z m 0.86999,0.5932 c 80.28797,31.9061 168.64407,39.0018 253.67487,37.4236 86.7274,-6.0923 -87.6976,-9.2349 -46.6312,-6.3187 -88.0952,3.3761 -120.4781,-16.6161 -207.04367,-31.1044 l 0,-5e-4 z M 423.48348,1083.1188 c 8.73082,32.8696 5.40424,27.8509 0,0 z m 26.53472,-351.59496 5.89349,-14.54582 -5.89349,14.54582 z m 59.19891,242.25285 c 1.85626,-201.87871 89.05539,-397.89967 224.45988,-545.15358 69.18833,-38.98096 140.12046,-81.29388 207.68589,-121.96958 75.81382,-30.65785 151.41152,-56.69123 232.62482,-70.0226 58.8171,-35.97579 148.5768,-31.73411 204.0922,-14.64603 88.6794,-12.60114 172.2888,21.506 251.7519,52.67675 42.9573,3.92538 206.2009,148.10348 151.9395,121.14021 -63.4524,-56.71386 -132.4139,-107.98694 -215.3127,-130.95867 -36.924,-12.46944 -140.7321,-45.0585 -142.6568,-32.62011 73.0966,17.76516 136.0955,42.97003 205.1682,67.78484 77.3393,29.48902 136.7018,91.69111 184.1066,151.38957 22.2251,41.71426 63.288,85.21461 83.7879,151.82861 33.7924,78.62397 58.798,111.19804 64.0887,192.83481 37.45,68.43841 28.5663,152.46479 20.3608,237.73049 -21.0805,76.7998 -33.4672,146.2495 -73.1331,216.2062 -31.8404,75.1873 -79.0003,140.8511 -136.3822,198.0747 -82.2901,77.9454 -166.9843,157.2834 -274.139,199.8923 -113.2918,54.1563 -241.8974,75.8037 -366.6289,58.7408 -89.2882,0.4711 -171.42368,-30.4747 -249.86651,-68.4628 -81.22306,-40.1217 -143.39722,-106.8392 -202.29327,-173.3114 -42.07679,-60.9798 -78.84429,-123.3173 -102.97663,-193.1631 -31.89966,-73.1439 -46.79927,-147.9756 -58.85309,-225.5072 -16.33838,-20.9349 4.47758,-49.50911 -7.82419,-72.48421 z m 28.1165,-171.38814 c 19.57093,-34.13688 9.75597,-61.48071 0,0 z M 663.87773,679.64076 c 8.29926,-5.69129 4.30492,-18.43169 0,0 z m 26.57429,-174.63092 c 19.03849,-15.51912 11.6604,-29.6316 0,0 z m 44.29043,223.9831 6.08392,-11.55176 -6.08392,11.55176 z m 2e-5,-278.39707 c 54.40192,-23.01211 150.49758,-86.24854 169.98973,-102.14083 31.69305,-4.80819 105.7216,-61.35305 32.27971,-23.89075 -68.93443,27.47893 -129.08493,77.99158 -193.23789,116.55328 l -6.8574,3.37639 -2.17415,6.10191 0,0 z m 22.73838,1210.19673 6.99949,4.3896 -6.99949,-4.3896 z M 876.47188,229.14366 c 90.21716,-34.13124 181.68752,-75.65319 280.75562,-83.41342 71.9692,-22.14728 156.5227,-32.15517 225.8061,-14.53175 66.6709,-7.59474 141.1176,7.22548 208.1307,24.16819 -60.5574,-28.75924 -140.2265,-38.6407 -210.9374,-38.93984 -89.3288,-0.85787 -180.3026,-5.43348 -265.7708,27.66516 -78.8167,16.8165 -159.74915,41.71619 -228.83344,78.21661 l -2.61349,2.43909 -6.53729,4.39596 0,0 z m 93.64258,515.03458 3.81796,-6.04631 -3.81796,6.04631 z m 5.06177,-439.10811 c 13.76711,3.50457 15.98176,-12.87574 0,0 z m 13.91998,-2.53087 c 72.40309,-24.42782 146.74449,-46.20936 223.37799,-61.27741 100.1619,-34.3364 -146.1604,26.78703 -84.0435,11.92736 -47.9514,10.57796 -99.6995,18.37403 -139.33449,49.35005 z M 1097.924,1791.9636 c 22.8277,3.5705 26.427,0.2346 0,0 z m 83.5193,-1664.05523 c 25.2288,-4.73245 49.7103,-2.14275 0,0 z m 136.6676,1685.56773 c 36.2724,3.2367 28.1973,-14.6244 0,0 z m 163.2418,-64.5377 12.4684,-4.3373 -12.4684,4.3373 z m 45.556,7.5929 c 14.5441,2.7476 0.612,-8.6169 0,0 z m 20.247,-8.8582 c 6.3974,5.1297 6.2458,-7.0954 0,0 z m 53.1485,-1590.65959 c 11.2336,17.76267 31.4303,-0.15174 0,0 z m 30.3707,1548.90019 9.0584,-3.2426 -9.0584,3.2426 z m 15.1851,-6.3273 12.5531,-6.9058 -12.5531,6.9058 z m 42.2738,-172.4954 5.4177,-3.9151 -5.4177,3.9151 z m 7.0785,138.3284 9.2715,-7.5255 -9.2715,7.5255 z m 9.7677,-7.5926 c 37.7998,-25.3065 41.3116,-32.4986 1.1436,-8.9598 l 0.878,5.1384 -2.0216,3.8214 z m 34.5229,-1428.68312 c 32.4695,29.31115 51.7156,7.92713 0,0 z m 8.8579,1397.04712 c 14.2617,-2.644 29.2608,-29.6908 7.9049,-9.3815 l -7.9049,9.3815 z m 53.4649,-1209.16872 c 28.3565,19.79022 17.6878,31.3946 0,0 z m 8.5417,1156.02012 c 25.6027,-13.4419 -0.6668,-16.9493 0,0 z m 11.389,-12.6544 c 24.2805,-11.853 11.8138,-19.9214 0,0 z m 6.8018,-1111.41332 5.8276,7.30888 -5.8276,-7.30888 z m 0.078,-3.71718 c 5.477,-4.82058 0.2974,10.65204 0,0 z m 4.864,7.55309 c 9.9993,-2.63446 0.6992,9.29541 0,0 z m 5.6946,11.70536 c 3.9826,-1.6888 0.5749,6.82228 0,0 z m 6.7623,7.039 c 17.851,6.7322 2.7885,19.19872 0,0 z m 15.0268,24.16198 c 10.7667,-0.39013 -0.1823,34.6918 0,0 z m 3.7965,-166.6032 c 18.8557,26.81105 18.3045,-4.75928 0,0 z m 13.9197,11.78436 0.7752,0.95287 -0.7752,-0.95287 z m 1.0284,0.87011 c -6.1735,25.71556 31.2378,18.99921 0,0 z m -11.1518,175.8963 c 11.835,4.27211 6.9617,27.96292 0,0 z m 17.2811,29.85636 c 8.7275,1.84147 -2.9188,10.01423 0,0 z m 10.5193,27.64216 0.8905,1.40526 -0.8905,-1.40526 z m 4.7454,-184.08222 c 18.0216,15.07777 8.8429,30.05731 0,0 z m 0.8698,198.71387 c 9.8597,0.33083 1.5208,15.08747 0,0 z m 10.7959,22.58025 c 17.1887,8.42704 -5.0412,32.98113 0,0 z m 10.8749,26.65342 c 23.1026,39.15911 13.2764,45.96336 0,0 z m 4.3893,-197.29037 c -5.2124,-16.98816 16.0374,5.25916 0,0 z m 8.858,989.57503 c 20.2876,-13.1035 4.175,-24.3548 0,0 z m 10.1237,-15.1853 c 30.9091,-33.0691 -3.022,-17.2934 0,0 z m -10.1237,-969.32798 c -3.3543,-10.00015 13.7373,4.36611 0,0 z m 1.7006,231.49676 c 17.7525,1.23292 9.3639,41.81038 0,0 z m 17.0041,45.63495 0.2583,0.67587 -0.2583,-0.67587 z m 4.0734,671.94927 c 13.2327,-9.1162 2.7952,-12.6556 0,0 z m 5.0619,-27.8396 c 11.7727,-10.6072 14.8962,-27.8132 0,0 z m 3.7962,-582.10307 0.1126,-1.24866 -0.1126,1.24866 z m 1.2655,10.12361 c -2.1411,-8.49349 4.4449,2.59407 0,0 z m 1.2655,584.63396 c 26.5006,-25.2911 0.6025,-25.5968 0,0 z m 3.4007,-578.30689 c 10.8933,1.33577 -10.2193,21.59277 0,0 z m 3.0054,16.05532 c -2.6165,-7.38904 4.1496,1.81191 0,0 z m 45.4768,-170.43908 c 2.0845,-7.56569 4.6784,8.16182 0,0 z m 1.147,594.83665 1.0352,-5.5191 -1.0352,5.5191 z m 16.5693,-41.8388 c 3.8375,-10.8375 21.5757,-6.3982 0,0 z m 14.4734,-46.2282 1.3886,-0.5504 -1.3886,0.5504 z m 7.1972,-7.4344 4.7967,-14.7794 -4.7967,14.7794 z m 1.4631,-390.70515 2.0518,8.48692 -2.0518,-8.48692 z m 0.1583,-2.33296 6.1006,11.2139 -6.1006,-11.2139 z m 12.9708,14.78978 c 9.4667,22.92709 1.6936,30.82767 0,0 z m 1.7005,91.50721 c 6.2395,17.48922 11.5697,53.61939 2.9362,14.93149 l -2.9362,-14.93149 z m 6.3272,51.88302 c 11.2165,56.91864 8.22,75.01509 0.9007,13.27497 -0.3003,-4.42502 -0.6006,-8.84999 -0.9007,-13.27497 z m -1e-4,-40.49419 c 9.1311,-2.11966 0.1702,14.67906 0,0 z m 0.9492,-59.15927 2.8251,12.72949 -2.8251,-12.72949 z m 2.8471,211.01226 c 19.1245,-30.68124 2.827,-120.69501 9.6191,-35.64266 -1.0063,6.05311 2.3911,57.12226 -9.6191,35.64266 z"
     id="path3488"
     inkscape:connector-curvature="0" />
  <path
     style="fill:#3465a4;stroke:none"
     d="m 608.07971,833.15459 c -4.67249,70.40448 132.43033,117.21562 139.18642,125.39188 -43.68226,-18.44228 -100.96016,-37.54462 -26.55446,5.96681 61.15516,28.04788 128.0857,13.90859 188.71881,40.60242 104.54112,73.5424 60.71625,-90.82102 94.87292,-142.03895 13.7627,-68.33718 81.2247,-116.02446 87.3232,-182.47241 2.6036,-34.55844 -4.5365,-78.07905 -61.3471,-82.39861 -81.75372,-24.58688 -153.60804,-118.30308 -243.65384,-79.27614 -89.82822,28.05224 -119.42432,135.06199 -159.03228,210.77237 -11.81337,33.13456 -19.70716,68.10727 -19.51367,103.45263 z m 3.91496,-239.56384 7.33468,-11.00201 -7.33468,11.00201 z m 82.25366,251.82279 c -2.2621,-81.2942 49.25928,-161.0555 102.076,-238.35877 63.60281,-21.62185 132.85957,51.95299 193.34727,75.3946 -40.16333,70.09648 -86.00912,144.62537 -98.58964,226.43076 -57.92737,19.71348 -144.19924,-32.09753 -196.83363,-63.46659 z m 2.5309,-380.89779 c 44.21753,-31.11613 29.02234,-50.96384 0,0 z m 81.81868,500.75882 c 16.59199,1.71936 22.89597,2.37258 0,0 z m 11.38896,-435.31173 c 3.60999,-15.07243 9.76091,4.01043 0,0 z m 10.16306,-7.59265 11.99692,-3.16434 -11.99692,3.16434 z m 1.58183,446.06799 c 20.7883,-5.15668 61.94648,15.25021 17.69457,5.5382 l -17.69457,-5.5382 z m 2.60996,-441.91582 c 2.70459,-9.90907 18.3984,3.04328 0,0 z m 73.39561,452.59285 7.35517,0.43506 -7.35517,-0.43506 z m 51.80398,-423.76458 c 9.5749,-3.87878 16.00258,10.05208 0,0 z m 29.65885,466.98757 2.03483,-3.1229 -2.03483,3.1229 z m 17.24163,-70.62764 c 5.87279,-25.09876 8.43632,-31.07372 0,0 z m 3.79633,1.7005 c 6.46982,15.0523 0.12401,31.38649 0,0 z m 25.30878,-340.8387 c -3.7072,-8.43748 9.1296,-0.0696 0,0 z m 56.0353,15.89709 c 1.6339,-11.5347 3.8362,1.65821 0,0 z m 12.9313,100.87932 4.1748,-11.47193 -4.1748,11.47193 z m 8.2252,-35.78818 c -4.9797,-7.01385 4.5433,-2.59366 0,0 z m 0.9887,4.50816 c 7.6185,-14.48895 -3.3567,22.33319 0,0 z"
     id="path3520"
     inkscape:connector-curvature="0" />
  <path
     style="fill:#729fcf;stroke:none"
     d="m 1116.9056,1535.079 c 11.9594,32.1016 89.8927,65.043 116.2449,57.9719 -25.2023,-6.4938 124.4845,4.18 14.0443,4.3611 -40.0113,4.9352 83.2406,2.1891 6.8172,19.2459 75.1546,14.8533 154.1752,-24.203 219.5116,-63.5195 80.6086,-40.437 129.6859,-114.5032 196.9511,-168.7883 50.8517,-58.7829 78.9316,-131.4897 128.7653,-191.0953 33.9549,-55.5361 60.8832,-124.0718 72.9189,-194.91324 7.6985,-27.66558 1.4249,-88.29372 6.7434,-25.64416 -13.3676,-60.51225 26.0475,-191.54916 -58.6182,-197.41807 -12.9201,-80.9872 -91.846,-34.32897 -58.3436,31.41172 8.3807,61.02558 -16.3638,234.05765 -10.5459,213.26375 13.7519,-79.29825 -31.0031,73.3116 -38.6334,100.9605 -19.1425,81.3249 -85.0799,141.1702 -150.0291,193.161 -49.2303,47.6004 -98.4309,96.3985 -162.6671,123.1436 -65.2024,29.4543 -127.2884,66.3304 -195.7298,85.3334 -27.5729,5.265 -70.2256,-21.1095 -87.4296,12.5257 z M 1852.127,780.87602 c 3.5077,-9.91361 -14.0863,-0.82898 0,0 z m -728.8941,756.73388 11.9234,9.6915 -11.9234,-9.6915 z m 19.0609,-12.4959 12.4078,1.0924 -12.4078,-1.0924 z m 2.4516,32.7429 c -0.018,-14.3455 24.8417,0.09 0,0 z m 25.1507,11.1123 c 19.4307,-3.0952 4.4985,5.6785 0,0 z m 43.8157,19.1398 19.2099,-0.9081 -19.2099,0.9081 z m 56.7077,3.7568 11.6291,-1.7364 -11.6291,1.7364 z m 18.5863,0.1582 12.9404,0.4778 -12.9404,-0.4778 z m 34.7601,-114.5621 1.5384,-0.2487 -1.5384,0.2487 z m 149.0847,-81.344 8.1057,-4.7656 -8.1057,4.7656 z m 104.6757,-95.1455 5.2552,-4.2042 -5.2552,4.2042 z m 61.809,108.3139 12.22,-10.6247 -12.22,10.6247 z m 62.9557,-244.2302 1.6241,-4.9895 -1.6241,4.9895 z m 11.468,-25.8229 0.551,-0.6143 -0.551,0.6143 z m 2.6496,173.1281 6.1367,-10.5339 -6.1367,10.5339 z m 4.073,-187.4829 c 13.8503,-40.3312 14.7438,-36.4537 0,0 z m 3.836,165.9704 c -0.4981,-15.5403 7.5199,4.5718 0,0 z m 17.7161,-245.4956 0.6196,-1.9438 -0.6196,1.9438 z m 19.298,-298.92082 c 3.8871,-18.95379 26.209,-25.62845 0,0 z m 0.949,492.53332 c 10.5654,-21.0746 18.4534,-23.074 0,0 z m 7.395,-424.00192 c 0.4178,32.22402 0.041,35.5066 0,0 z m 88.7785,39.30783 c -2.3492,-18.28602 15.907,5.04853 0,0 z m 3.7965,50.61776 c 9.5234,33.86434 9.6159,34.46201 0,0 z m 1.2653,88.58075 0.4176,-1.99674 -0.4176,1.99674 z m 0,0 c 5.535,-12.05813 5.5268,8.43548 0,0 z m 1.6609,-42.35267 2.1355,5.655 -2.1355,-5.655 z m 0.87,-10.79561 c -0.4421,-9.54509 8.6134,8.65524 0,0 z m 0.1976,5.65475 0.774,-0.78634 -0.774,0.78634 z m 2.3332,23.45015 0.6123,-15.66857 -0.6123,15.66857 z m 1.2654,-89.84639 c 6.1385,30.231 1.5797,75.97412 0.042,16.41693 l -0.042,-16.41693 z"
     id="path3624"
     inkscape:connector-curvature="0" />
</svg>
